<?xml version="1.0" encoding="utf-8"?>
<!-- Generator: Adobe Illustrator 16.0.0, SVG Export Plug-In . SVG Version: 6.00 Build 0)  -->
<!DOCTYPE svg PUBLIC "-//W3C//DTD SVG 1.1//EN" "http://www.w3.org/Graphics/SVG/1.1/DTD/svg11.dtd">
<svg version="1.1" id="Layer_1" xmlns="http://www.w3.org/2000/svg" xmlns:xlink="http://www.w3.org/1999/xlink" x="0px" y="0px"
	 width="1894px" height="128.993px" viewBox="0 0 1894 128.993" enable-background="new 0 0 1894 128.993" xml:space="preserve">
<rect y="104.993" fill-rule="evenodd" clip-rule="evenodd" width="1894" height="24"/>
<g>
	<defs>
		<rect id="SVGID_1_" width="1894" height="128.993"/>
	</defs>
	<clipPath id="SVGID_2_">
		<use xlink:href="#SVGID_1_"  overflow="visible"/>
	</clipPath>
	<g clip-path="url(#SVGID_2_)">
		<path fill-rule="evenodd" clip-rule="evenodd" d="M2280.345,110.047c-229.75,0-458.652,0-687.555,0
			c-0.176-0.563-0.354-1.122-0.527-1.684c4.639-1.322,9.338-2.475,13.9-4.025c2.965-1.011,6.152-2.096,8.498-4.039
			c5.289-4.373,11.096-6.043,17.824-7.546c10.877-2.433,22.16-6.035,31.389-12.039c10.379-6.75,21.32-11.574,32.451-16.484
			c5.57-2.455,10.396-6.559,15.885-9.25c4.979-2.444,10.359-4.122,15.67-5.804c0.91-0.287,2.354,1.11,3.547,1.734
			c5.32,2.772,10.504,5.862,15.992,8.247c7.115,3.093,15.182,4.526,21.578,8.635c13.277,8.526,26.801,7.842,40.086,2.191
			c15.1-6.425,29.527-14.428,43.93-21.584c6.592,1.378,14.082,2.851,21.523,4.537c3.443,0.779,7.156,1.364,10.107,3.114
			c6.529,3.878,12.949,3.649,19.789,1.337c14.105-4.769,28.324-9.217,42.369-14.16c3.693-1.3,6.83-4.108,10.389-5.888
			c1.869-0.936,4.48-2.132,6.105-1.509c9.443,3.607,19.072,7.04,27.863,11.922c5.156,2.862,9.705,7.747,13.064,12.71
			c6.883,10.172,17.508,14.141,27.938,18.414c2.736,1.121,6.531,0.15,9.729-0.451c5.889-1.108,11.713-2.586,17.516-4.095
			c0.91-0.236,1.705-1.358,2.314-2.238c5.764-8.301,13.33-12.826,23.422-15.571c14.947-4.064,31.166-3.688,44.908-12.548
			c2.758-1.779,7.666-1.668,11.094-0.702c10.553,2.979,21.027,5.298,30.43,12.532c11.232,8.64,24.637,14.479,37.182,21.383
			c4.35,2.395,9.309,3.813,13.363,6.589c12.234,8.376,25.98,12.359,40.262,15.165
			C2269.337,100.308,2276.306,101.908,2280.345,110.047z"/>
		<path fill-rule="evenodd" clip-rule="evenodd" d="M980.354,106.321c3.586-1.575,7.771-2.44,10.639-4.863
			c7.561-6.391,14.529-13.479,21.77-20.25c10.572-9.885,22.578-13.236,36.572-8.226c8.025,2.873,16.184,5.369,24.271,8.069
			c12.742,4.253,25.617,2.269,37.738-1.366c10.486-3.146,19.98-9.489,30.109-13.974c8.588-3.804,17.26-7.725,26.289-10.091
			c4.242-1.113,9.488,1.002,14.133,2.217c3.596,0.939,7.131,2.451,10.396,4.247c5.32,2.925,10.973,5.637,15.467,9.595
			c12.02,10.589,26.682,10.354,37.859-0.978c10.891-11.045,25.166-14.783,39.656-18.622c7.291-1.93,14.041-6.531,20.516-10.725
			c5.736-3.717,10.174-9.9,16.25-12.51c6.748-2.898,14.959-4.831,22.072-3.844c9.836,1.363,19.355,5.136,23.596,16.451
			c1.369,3.653,6.104,7.493,10.008,8.492c15.033,3.854,26.25,14.619,39.957,20.847c10.383,4.715,20.449,7.025,31.613,4.439
			c7.594-1.759,15.893-1.83,22.758-5.044c8.266-3.869,16.576-7.987,23.172-15.457c3.971-4.498,11.865-5.673,18.135-7.967
			c5.871-2.146,12.244-3.126,17.813-5.826c7.996-3.877,15.008-4.412,21.125,2.576c5.994,6.85,12.996,12.812,19.475,19.243
			c7.666,7.608,17.021,11.595,27.439,13.958c6.314,1.433,12.596,3.596,18.436,6.386c6.799,3.245,13.322,5.942,21.051,3.853
			c10.383-2.809,14.176,6.43,20.068,11.574c2.916,2.547,5.084,5.949,7.873,9.303c-228.818,0-457.355,0-685.893,0
			C980.596,107.326,980.475,106.823,980.354,106.321z"/>
		<path fill-rule="evenodd" clip-rule="evenodd" d="M440.413,108.938c13.591-7.777,25.605-15.504,39.834-18.744
			c4.159-0.949,8.434-1.659,12.383-3.182c6.426-2.483,11.809-0.766,16.181,3.755c4.091,4.229,7.524,3.774,12.515,1.355
			c11.601-5.626,23.7-10.213,35.443-15.56c5.548-2.525,11.146-5.289,15.995-8.916c6.032-4.51,13.357-6.35,19.979-2.614
			c19.668,11.087,40.196,11.023,61.034,4.766c16.514-4.958,32.833-10.586,49.137-16.212c3.229-1.116,6.623-3.025,8.829-5.542
			c3.517-4.011,7.255-3.899,10.506-1.077c8.777,7.621,19.605,10.082,30.188,13.528c7.853,2.556,15.247,6.483,22.998,9.392
			c7.353,2.762,15.496,3.752,20.312,11.313c0.677,1.063,4.106,1.072,5.982,0.557c12.245-3.371,24.314-7.415,36.632-10.475
			c14.383-3.574,24.615-13.974,36.54-21.475c9.129-5.74,17.701-4.146,26.818-1.904c6.301,1.548,12.645,2.992,18.855,4.857
			c8.543,2.563,17.127,5.104,25.406,8.384c5.695,2.255,11.557,4.96,16.193,8.838c11.777,9.849,24.906,9.205,38.373,6.138
			c10.301-2.344,20.271-6.881,30.641-7.908c6.15-0.609,12.941,3.324,19.17,5.885c7.951,3.266,15.764,6.937,23.375,10.934
			c6.838,3.591,13.324,7.855,19.961,11.836c1.006,0.604,1.906,1.646,2.975,1.843c6.76,1.256,13.549,2.333,18.598,3.176
			c5.527,2.64,9.713,4.635,14.783,7.054C900.193,108.938,671.108,108.938,440.413,108.938z"/>
		<path fill-rule="evenodd" clip-rule="evenodd" d="M528.438,110.407c-195.758,0-391.109,0-585.599,0
			c0.677-3.031,1.349-6.037,2.021-9.041c-2.493,0.128-4.985,0.259-7.478,0.387c0.076,0.86,0.152,1.721,0.228,2.581
			c1.748-0.268,3.496-0.532,5.245-0.797c0.256,0.393,0.513,0.785,0.769,1.178c-2.628,2.065-5.255,4.131-8.162,6.414
			c-1.275-4.039-2.264-7.171-3.252-10.303c-1.075,0.379-2.149,0.758-3.135,1.105c0.861,2.622,1.651,5.024,2.685,8.167
			c-3.894,0-6.859,0-8.43,0c0.341-2.896,0.708-6.016,1.075-9.136c-2.39,0.476-4.781,0.952-7.171,1.431
			c0.202,0.737,0.403,1.478,0.606,2.216c1.649-0.423,3.298-0.847,4.948-1.27c0.301,0.459,0.602,0.919,0.903,1.378
			c-1.922,1.498-3.844,2.998-4.934,3.847c-2.869-3.051-5.204-5.53-7.538-8.014c-1.539,1.823-3.076,3.644-4.68,5.545
			c-1.155-4.754-2.954-8.014-9.762-3.686c-2.836,1.804-8.601-1.417-13.061-1.567c-2.122-0.072-4.306,1.695-6.462,2.628
			c1.369,2.007,2.74,4.012,5.248,7.686c-2.941-2.586-6.234-4.139-6.272-5.768c-0.116-4.877-1.614-11.78,5.127-13.088
			c10.603-2.055,20.361-4.802,28.542-12.496c5.548-5.219,12.18-4.484,18.068,0.248c5.309,4.265,10.82,6.608,18.038,6.861
			c9.972,0.351,17.285-3.919,23.99-10.057c3.504-3.21,6.387-4.919,11.109-2.127c4.507,2.666,8.203,1.366,11.384-3.359
			c1.721-2.559,5.373-4.755,8.46-5.27c7.871-1.309,16.062-0.85,23.851-2.438c11.194-2.282,22.103-5.935,33.232-8.591
			c2.738-0.652,6.198-0.489,8.743,0.627c11.239,4.928,22.237,10.404,33.379,15.563c10.22,4.729,21.053,3.914,31.367,1.453
			c19.708-4.701,39.359-9.812,57.221-20.125c3.408-1.968,8.692-0.549,12.31-2.324c6.9-3.388,13.984-7.12,19.588-12.244
			c6.628-6.06,13.435-6.966,21.577-5.402c21.202,4.068,40.632,13.016,58.967,23.66c18.107,10.513,37.147,10.732,56.39,8.389
			c6.076-0.74,11.101-8.179,17.161-11.561c6.483-3.615,13.588-6.135,20.511-8.91c0.711-0.284,2.159,0.789,3.041,1.506
			c2.575,2.094,4.955,4.426,7.558,6.48c6.465,5.1,11.226,11.44,20.584,13.893c8.579,2.246,15.978,10.274,22.991,16.74
			c4.425,4.081,7.522,8.609,14.001,3.886c0.785-0.573,2.437-0.57,3.413-0.167c8.049,3.327,15.692,1.264,23.53-1.074
			c7.776-2.318,12.885,4.108,18.309,7.558C515.773,97.533,521.527,104.164,528.438,110.407z"/>
	</g>
</g>
</svg>
