<?xml version="1.0" encoding="utf-8"?>
<!-- Generator: Adobe Illustrator 16.0.0, SVG Export Plug-In . SVG Version: 6.00 Build 0)  -->
<!DOCTYPE svg PUBLIC "-//W3C//DTD SVG 1.1//EN" "http://www.w3.org/Graphics/SVG/1.1/DTD/svg11.dtd">
<svg version="1.1" id="Layer_1" xmlns="http://www.w3.org/2000/svg" xmlns:xlink="http://www.w3.org/1999/xlink" x="0px" y="0px"
	 width="176px" height="179.993px" viewBox="0 0 176 179.993" enable-background="new 0 0 176 179.993" xml:space="preserve">
<g>
	<g>
		<circle fill-rule="evenodd" clip-rule="evenodd" fill="#4B4A4B" cx="89.303" cy="83.671" r="78.729"/>
		<g>
			<defs>
				<circle id="SVGID_1_" cx="89.303" cy="83.671" r="78.729"/>
			</defs>
			<clipPath id="SVGID_2_">
				<use xlink:href="#SVGID_1_"  overflow="visible"/>
			</clipPath>
			<g clip-path="url(#SVGID_2_)">
				<polygon fill-rule="evenodd" clip-rule="evenodd" fill="#EAEAEA" points="-9.407,95.699 17.542,95.699 40.33,85.788 
					35.42,84.509 33.144,83.192 28.113,82.832 17.542,79.958 12.063,79 5.475,79.359 0.205,79.359 -12.731,79 -18.601,78.401 
					-28.917,79.562 				"/>
				<polygon fill-rule="evenodd" clip-rule="evenodd" fill="#EAEAEA" points="139.125,92.175 99.861,91.336 99.861,89.061 
					100.676,86.066 106.785,84.03 112.917,83.671 118.307,83.671 124.057,84.749 129.806,84.629 136.409,86.147 				"/>
				<polygon fill-rule="evenodd" clip-rule="evenodd" fill="#EAEAEA" points="39.732,92.175 78.996,91.336 78.996,89.061 
					78.181,86.066 72.072,84.03 65.244,82.953 58.777,83.671 51.23,85.264 40.914,86.425 				"/>
				<polygon fill-rule="evenodd" clip-rule="evenodd" fill="#C6C6C5" points="-35.635,113.643 -52.424,176.53 210.418,176.53 
					210.418,85.982 203.49,86.342 193.429,87.06 180.134,86.342 161.45,85.264 130.907,86.342 109.172,86.333 92.101,85.982 
					72.697,85.623 28.113,85.85 40.901,97.113 -1.14,103.939 				"/>
				<polygon fill-rule="evenodd" clip-rule="evenodd" fill="#ADADAD" points="109.349,102.511 129.111,176.53 -136.703,176.53 
					-136.703,67.657 -126.658,67.657 -116.664,68.375 -100.481,65.875 -74.264,66.218 -61.329,69.453 -35.457,75.202 
					-27.912,80.233 -7.071,82.748 2.99,85.144 32.813,85.982 74.854,92.809 				"/>
				<polygon fill-rule="evenodd" clip-rule="evenodd" fill="#848484" points="-14.977,176.53 210.418,176.53 210.418,94.965 
					179.415,94.965 129.471,97.925 99.646,102.511 69.104,112.213 28.113,133.412 5.903,144.293 				"/>
			</g>
		</g>
		<g>
			<defs>
				<circle id="SVGID_3_" cx="89.303" cy="83.671" r="78.729"/>
			</defs>
			<clipPath id="SVGID_4_">
				<use xlink:href="#SVGID_3_"  overflow="visible"/>
			</clipPath>
			<g clip-path="url(#SVGID_4_)">
				<path fill-rule="evenodd" clip-rule="evenodd" d="M142.008,145.471c0.393,0.242,0.779,0.492,1.176,0.729
					c5.543,3.298,8.74,8.107,9.219,14.576c0.184,2.465-0.404,4.811-2.029,6.762c-0.545,0.653-1.258,1.167-1.912,1.721
					c-0.087,0.072-0.351,0.065-0.426-0.01c-0.094-0.096-0.161-0.351-0.1-0.45c1.328-2.142,1.175-4.507,0.818-6.8
					c-0.907-5.811-3.632-10.701-7.906-14.731c-0.162-0.152-0.334-0.292-0.507-0.43c-0.056-0.044-0.131-0.061-0.195-0.089
					c-0.462,0.838-0.864,1.704-1.386,2.49c-1.32,1.991-3.236,3.183-5.373,4.207c-4.063,1.949-8.232,3.695-11.895,6.43
					c-3.553,2.65-5.899,6.089-7.202,10.253c-0.948,3.032-2.189,8.596,0.445,11.141c2.005,1.938,5.362,2.348,7.952,2.868
					c1.495,0.3,3.111,0.742,4.377,1.641c0.303,0.215,0.351,0.787,0.561,1.311c-0.363,0-0.539,0.041-0.687-0.006
					c-2.265-0.736-4.676-0.6-7.021-0.682c-2.009-0.07-3.965-0.578-5.962-0.675c-1.504-0.072-2.984,0.249-4.484,0.274
					c-1.47,0.025-2.904-0.317-4.371-0.385c-3.323-0.152-6.624,0.396-9.925,0.688c-1.211,0.107-2.419,0.256-3.628,0.374
					c-0.204,0.02-0.416-0.024-0.623-0.039c-0.041-0.073-0.082-0.147-0.124-0.221c0.503-0.411,0.946-0.973,1.521-1.197
					c3.173-1.242,6.577-1.762,9.917-2.345c2.21-0.387,4.635-0.856,6.016-2.808c3.644-5.152,2.157-14.288-0.123-19.663
					c-2.317-5.462-5.994-7.979-11.305-10.112c-5.775-2.32-11.195-5.662-15.693-9.98c-5.005-4.801-10.154-10.67-11.832-17.568
					c-0.906-3.719-1.107-8.459-0.264-12.215c2.345-10.438,8.725-19.665,14.511-28.459c2.229-3.388,3.911-7.955,3.769-12.05
					c-0.291-8.354-6.469-11.839-13.688-11.787c-0.49-4.196,9.355-3.572,11.75-5.103c2.482-1.587,5.346-2.673,8.313-2.708
					c3.205-0.038,5.565,0.987,8.031,2.96c3.244,2.596,5.074,6.124,6.422,9.955c1.454,4.132,2.344,8.414,2.466,12.797
					c0.181,6.407-0.369,12.578,0.911,18.917c1.958,9.695,5.361,18.147,13.021,24.672c-0.172-0.916-0.348-1.831-0.516-2.749
					c-1.227-6.739-1.268-13.501-0.2-20.253c1.574-9.956,5.231-19.093,11.035-27.357c6.135-8.736,13.983-15.396,23.813-19.638
					c3.938-1.7,8.043-2.867,12.322-3.291c17.691-1.75,31.223,5.177,40.939,19.84c3.775,5.696,6.008,12.04,7.244,18.75
					c0.729,3.953,1.103,7.939,0.991,11.948c-0.38,13.689-4.573,26.1-12.635,37.193c-1.27,1.747-2.444,3.563-3.667,5.346
					c-0.148,0.216-0.318,0.417-0.545,0.711c0.296-1.842,0.57-3.561,0.846-5.279c-0.067-0.016-0.135-0.03-0.202-0.045
					c-0.247,0.963-0.534,1.918-0.732,2.891c-0.942,4.621-2.627,8.925-5.401,12.768c-0.161,0.225-0.362,0.42-0.672,0.58
					c1.27-4.04,1.978-8.137,1.885-12.377c-1.893,3.772-4.033,7.384-6.926,10.467c-2.91,3.104-6.371,5.485-10.127,7.436
					c-0.041-0.047-0.083-0.094-0.124-0.143c0.812-1.014,1.597-2.053,2.442-3.039c3.192-3.727,5.421-7.928,6.371-12.769
					c0.621-3.176-0.417-8.009-1.619-10.957c-1.367-3.36-3.917-5.938-7.08-7.659c-7.513-4.09-16.875-3.654-24.599-0.442
					c-4.763,1.979-10.058,4.925-13.951,8.337c-0.13,0.113-0.255,0.231-0.374,0.354c-0.025,0.026-0.017,0.084-0.01,0.034
					c1.791-0.886,3.586-1.891,5.471-2.686c5.094-2.147,10.424-2.995,15.925-2.415c6.049,0.638,11.521,2.703,15.866,7.125
					c2.381,2.427,4.199,5.37,5.062,8.673c0.54,2.067,1.669,7.71-0.366,9.331c0.26-0.276-2.867-4.498-3.125-4.864
					c-1.507-2.146-3.285-3.949-5.439-5.461c-4.443-3.117-11.342-5.91-16.875-5.031c0.891,0.236,1.844,0.35,2.695,0.726
					c5.304,2.341,10.07,5.377,12.848,10.729c1.881,3.623,2.1,7.408,0.792,11.277c-0.048,0.139-0.106,0.275-0.177,0.402
					c-0.092,0.168-0.199,0.324-0.361,0.58c-1.938-7.055-6.309-11.979-12.55-15.441c-5.036-2.795-10.316-3.936-16.104-2.941
					c6.867,0.945,13.554,3.309,18.672,8.106c2.226,2.087,4.524,4.775,4.889,7.927c0.364,3.164-1.215,6.934-3.836,8.737
					c-0.821,0.565-1.758,0.971-2.661,1.409c-0.173,0.085-0.567,0.057-0.627-0.051c-0.097-0.172-0.017-0.455,0.022-0.686
					c0.014-0.081,0.119-0.153,0.194-0.215c5.882-4.865-1.2-13.076-5.343-16.285c-0.127-0.098-0.27-0.174-0.305-0.197
					c0.51,1.269,1.189,2.56,1.547,3.934c0.699,2.687,0.525,5.279-1.518,7.438c-0.283,0.299-0.639,0.534-0.982,0.768
					c-0.182,0.123-0.41,0.18-0.617,0.266c-0.02-0.25-0.063-0.502-0.053-0.75c0.031-0.857,0.189-1.725,0.1-2.567
					c-0.35-3.319-2.154-5.868-4.557-8.017C148.797,147.658,145.873,146.24,142.008,145.471z M142.242,86.262
					c3.039-3.272,6.545-5.884,10.506-7.904c1.857-0.947,3.633-2.133,5.586-2.801c5.514-1.884,11.197-2.22,16.927-1.137
					c8.855,1.675,16.058,6.199,21.783,13.064c6.591,7.9,9.876,17.132,10.626,27.326c0.083,1.131,0.122,2.266,0.182,3.397
					c0.102-0.46,0.18-0.917,0.219-1.378c0.391-4.647,0.312-9.273-0.566-13.873c-1.246-6.537-3.678-12.582-7.744-17.865
					c-7.866-10.222-18.229-15.22-31.189-14.254c-5.415,0.404-10.5,2.042-15.183,4.939c-3.997,2.473-7.636,5.275-10.276,9.226
					C142.828,85.427,142.531,85.843,142.242,86.262z M191.854,102.056c-0.073-0.096-0.143-0.194-0.218-0.287
					c-5.623-6.938-12.75-11.192-21.729-12.021c-2.563-0.236-5.16-0.263-7.69,0.43c-6.97,1.91-12.774,5.709-17.69,10.942
					c-0.113,0.122-0.2,0.271-0.299,0.408C157.1,90.276,177.731,90.248,191.854,102.056z"/>
				<path fill-rule="evenodd" clip-rule="evenodd" d="M97.641,37.494c-0.705,1.526-1.41,3.053-2.043,4.423
					c1.57-0.583,3.197-1.317,4.896-1.788c3.283-0.909,6.61-1.234,10.031-0.647c2.214,0.38,4.486,0.414,6.732,0.604
					c0.096,0.008,0.189,0.03,0.463,0.075c-1.011,1.536-2.561,2.129-4.084,2.866c0.813,0.294,1.552,0.565,2.293,0.828
					c3.932,1.392,6.584,4.909,10.613,6.28c0.226,0.077,0.412,0.271,0.615,0.411c-0.205,0.152-0.39,0.371-0.621,0.444
					c-0.855,0.273-1.726,0.498-2.748,0.786c1.902,2.209,4.245,3.604,6.66,5.112c-0.264,0.321-0.569,0.617-0.902,0.871
					c-3.58,2.734-8.85,4.528-13.346,3.76c-5.511-0.942-6.923-5.921-10.777-9.046c-5.391-4.369-14-3.842-19.354,0.212
					c-0.703,0.533-1.414,1.061-2.164,1.522c-0.258,0.157-0.645,0.104-0.972,0.147c-0.021-0.32-0.137-0.67-0.05-0.958
					c1.611-5.325,4.654-9.563,9.428-12.526c1.56-0.967,3.01-2.111,4.511-3.17c0.188-0.132,0.392-0.242,0.587-0.362
					C97.487,37.389,97.563,37.442,97.641,37.494z"/>
				<path fill-rule="evenodd" clip-rule="evenodd" d="M85.561,62.119c0.019,0,0.027,0.002,0.021,0.006
					c-0.248,0.136,0.519,2.917,0.582,3.287c0.245,1.431,0.37,2.872,0.343,4.323c-0.073,3.956-2.205,11.28-7.513,10.351
					c-1.447-0.253-3.857-1.834-4.396-3.274c-1.249-3.341,1.31-5.938,3.809-7.743c2.677-1.932,5.759-3.564,6.826-6.918
					C85.154,62.131,85.471,62.114,85.561,62.119z"/>
			</g>
		</g>
	</g>
	<g>
		<circle opacity="0.8" fill="#FFFFFF" cx="61.733" cy="63.344" r="1.228"/>
		<circle opacity="0.8" fill="#FFFFFF" cx="47.995" cy="75.38" r="1.228"/>
		<circle opacity="0.8" fill="#FFFFFF" cx="21.431" cy="62.077" r="1.227"/>
		<circle opacity="0.8" fill="#FFFFFF" cx="118.171" cy="72.879" r="0.844"/>
		<circle opacity="0.8" fill="#FFFFFF" cx="60.956" cy="21.529" r="0.532"/>
		<circle opacity="0.8" fill="#FFFFFF" cx="96.981" cy="26.644" r="0.532"/>
		<circle opacity="0.8" fill="#FFFFFF" cx="43.552" cy="48.861" r="0.533"/>
		<circle opacity="0.8" fill="#FFFFFF" cx="72.849" cy="55.339" r="0.532"/>
		<circle opacity="0.8" fill="#FFFFFF" cx="86.381" cy="37.868" r="0.532"/>
		<circle opacity="0.8" fill="#FFFFFF" cx="67.028" cy="34.97" r="0.532"/>
		<circle opacity="0.8" fill="#FFFFFF" cx="82.409" cy="34.138" r="0.532"/>
		<circle opacity="0.8" fill="#FFFFFF" cx="114.637" cy="19.555" r="0.532"/>
		<circle opacity="0.8" fill="#FFFFFF" cx="30.447" cy="60.328" r="0.532"/>
		<circle opacity="0.8" fill="#FFFFFF" cx="21.705" cy="76.102" r="0.532"/>
		<circle opacity="0.8" fill="#FFFFFF" cx="42.819" cy="58.544" r="0.532"/>
		<circle opacity="0.8" fill="#FFFFFF" cx="62.565" cy="46.488" r="0.532"/>
		<circle opacity="0.8" fill="#FFFFFF" cx="67.97" cy="80.368" r="0.532"/>
		<circle opacity="0.8" fill="#FFFFFF" cx="75.364" cy="69.461" r="0.532"/>
		<circle opacity="0.8" fill="#FFFFFF" cx="39.91" cy="74.341" r="0.532"/>
		<circle opacity="0.8" fill="#FFFFFF" cx="32.733" cy="35.178" r="0.532"/>
		<circle opacity="0.8" fill="#FFFFFF" cx="53.944" cy="18.515" r="0.532"/>
		<circle opacity="0.8" fill="#FFFFFF" cx="122.622" cy="37.736" r="0.532"/>
		<circle opacity="0.8" fill="#FFFFFF" cx="130.018" cy="26.83" r="0.532"/>
		<circle opacity="0.8" fill="#FFFFFF" cx="128.759" cy="46.761" r="0.532"/>
		<circle opacity="0.8" fill="#FFFFFF" cx="75.035" cy="33.672" r="0.844"/>
		<circle opacity="0.8" fill="#FFFFFF" cx="50.095" cy="38.935" r="0.844"/>
		<circle opacity="0.8" fill="#FFFFFF" cx="135.159" cy="28.965" r="0.844"/>
		<circle opacity="0.8" fill="#FFFFFF" cx="104.17" cy="35.808" r="1.227"/>
		<circle opacity="0.8" fill="#FFFFFF" cx="147.783" cy="38.026" r="1.227"/>
	</g>
	<g>
		<g>
			<text transform="matrix(1 0 0 1 15.0117 162.6514)" fill="#FEEFF3" font-family="'CenturyGothic'" font-size="29.1774">STARDROP</text>
		</g>
		<text transform="matrix(1 0 0 1 58.0889 175.9932)" fill="#FFFFFF" font-family="'CenturyGothic'" font-size="9.5996">HOMESTEAD</text>
	</g>
	<g>
		<path fill="#FFFFFF" d="M51.483,40.059c-0.774,1.24-1.628,14.03-1.628,14.03s-0.154-12.402-1.24-13.642
			c-1.55-1.783-12.015-1.705-12.015-1.705s10.387-0.156,11.783-1.861c1.473-1.472,1.473-10.929,1.473-10.929
			s0.543,9.921,2.094,11.162c1.396,1.472,12.324,1.628,12.324,1.628S52.414,38.819,51.483,40.059z"/>
	</g>
	<circle opacity="0.8" fill="#FFFFFF" cx="80.053" cy="43.9" r="0.496"/>
	<circle opacity="0.8" fill="#FFFFFF" cx="112.931" cy="25.744" r="0.497"/>
	<circle opacity="0.8" fill="#FFFFFF" cx="103.439" cy="18.526" r="0.497"/>
	<circle opacity="0.8" fill="#FFFFFF" cx="86.914" cy="23.233" r="0.497"/>
	<circle opacity="0.8" fill="#FFFFFF" cx="98.01" cy="10.102" r="0.496"/>
	<circle opacity="0.8" fill="#FFFFFF" cx="70.238" cy="13.047" r="0.496"/>
	<circle opacity="0.8" fill="#FFFFFF" cx="76.394" cy="22.062" r="0.496"/>
	<circle opacity="0.8" fill="#FFFFFF" cx="43.02" cy="30.305" r="0.496"/>
	<circle opacity="0.8" fill="#FFFFFF" cx="32.733" cy="49.393" r="0.496"/>
	<circle opacity="0.8" fill="#FFFFFF" cx="81.877" cy="14.842" r="1.299"/>
	<circle opacity="0.8" fill="#FFFFFF" cx="136.002" cy="55.872" r="0.497"/>
	<circle opacity="0.8" fill="#FFFFFF" cx="122.622" cy="67.143" r="0.496"/>
	<circle opacity="0.8" fill="#FFFFFF" cx="129.291" cy="69.993" r="0.496"/>
</g>
</svg>
